<svg xmlns="http://www.w3.org/2000/svg" xmlns:xlink="http://www.w3.org/1999/xlink" width="1080" zoomAndPan="magnify" viewBox="0 0 810 809.999993" height="1080" preserveAspectRatio="xMidYMid meet" version="1.0"><path fill="#000000" d="M 173.828125 311.550781 L 172.488281 301.722656 L 170.914062 295.191406 L 168.804688 288.8125 L 166.742188 283.84375 L 163.722656 277.84375 L 160.226562 272.109375 L 157.09375 267.738281 L 152.785156 262.578125 L 148.074219 257.789062 L 142.988281 253.402344 L 138.664062 250.199219 L 132.992188 246.605469 L 127.039062 243.488281 L 122.113281 241.351562 L 115.765625 239.132812 L 109.261719 237.453125 L 102.644531 236.304688 L 95.949219 235.699219 L 89.226562 235.648438 L 82.53125 236.132812 L 75.890625 237.179688 L 69.355469 238.753906 L 64.242188 240.40625 L 58.011719 242.921875 L 52.011719 245.945312 L 47.402344 248.707031 L 41.90625 252.574219 L 36.746094 256.882812 L 31.957031 261.59375 L 28.414062 265.632812 L 24.367188 271.003906 L 20.773438 276.675781 L 18.238281 281.417969 L 15.519531 287.554688 L 12.230469 297.785156 L 10.867188 304.367188 L 10.164062 309.699219 L 9.8125 320.4375 L 10.300781 327.136719 L 11.347656 333.777344 L 12.921875 340.308594 L 15.03125 346.6875 L 17.65625 352.871094 L 20.773438 358.824219 L 24.367188 364.496094 L 29.144531 370.738281 L 29.144531 554.898438 L 534.441406 554.898438 L 534.441406 536.300781 L 47.742188 536.300781 L 47.742188 387.011719 L 56.792969 392.011719 L 66.785156 395.964844 L 77.207031 398.574219 L 86.546875 399.722656 L 95.949219 399.800781 L 106.628906 398.574219 L 117.050781 395.964844 L 125.824219 392.578125 L 134.148438 388.214844 L 142.988281 382.097656 L 150.003906 375.835938 L 157.09375 367.761719 L 162.378906 359.980469 L 167.285156 350.425781 L 170.914062 340.308594 L 173.121094 330.148438 L 701.484375 330.148438 L 743.453125 393.699219 L 682.46875 393.699219 L 682.46875 403.859375 L 674.765625 410.75 L 750.550781 495.457031 L 747.226562 509.175781 L 736.933594 509.175781 L 735.183594 502.113281 L 732.804688 496.464844 L 731.121094 493.457031 L 726.550781 487.3125 L 721.488281 482.484375 L 716.25 478.824219 L 713.050781 477.089844 L 706.136719 474.332031 L 698.601562 472.601562 L 690.542969 471.984375 L 689.890625 490.566406 L 695.597656 490.960938 L 700.386719 492.023438 L 704.617188 493.667969 L 709.933594 497.070312 L 712.816406 499.859375 L 716.125 504.703125 L 718.179688 510.183594 L 718.886719 516.117188 L 718.195312 521.078125 L 716.257812 525.21875 L 712.972656 528.875 L 709.910156 531.0625 L 703.910156 533.804688 L 699 535.144531 L 693.378906 535.996094 L 686.902344 536.300781 L 687.335938 554.898438 L 695.449219 554.480469 L 699.332031 553.984375 L 706.175781 552.542969 L 712.988281 550.257812 L 719.203125 547.179688 L 724.734375 543.28125 L 729.472656 538.5625 L 733.246094 533.039062 L 735.554688 527.773438 L 761.859375 527.773438 L 770.933594 490.34375 L 701.105469 412.300781 L 778.03125 412.300781 L 711.5 311.550781 Z M 154.242188 330.148438 L 151.753906 339.15625 L 149.367188 344.921875 L 146.421875 350.425781 L 142.960938 355.609375 L 139.007812 360.429688 L 134.597656 364.839844 L 129.777344 368.792969 L 124.589844 372.253906 L 119.089844 375.199219 L 113.324219 377.585938 L 107.355469 379.394531 L 101.242188 380.609375 L 95.03125 381.222656 L 88.800781 381.222656 L 82.59375 380.609375 L 76.480469 379.394531 L 70.511719 377.585938 L 64.746094 375.199219 L 59.242188 372.253906 L 54.058594 368.792969 L 49.238281 364.839844 L 44.828125 360.429688 L 40.875 355.609375 L 37.410156 350.425781 L 34.46875 344.921875 L 32.078125 339.15625 L 30.273438 333.1875 L 29.058594 327.074219 L 28.445312 320.867188 L 28.445312 314.632812 L 29.058594 308.425781 L 30.273438 302.3125 L 32.078125 296.34375 L 34.46875 290.578125 L 37.410156 285.074219 L 40.875 279.890625 L 44.828125 275.070312 L 49.238281 270.660156 L 54.058594 266.707031 L 59.242188 263.246094 L 64.746094 260.300781 L 70.511719 257.914062 L 76.480469 256.105469 L 82.59375 254.890625 L 88.800781 254.277344 L 95.03125 254.277344 L 101.242188 254.890625 L 107.355469 256.105469 L 116.238281 259.035156 L 120.957031 261.222656 L 125.476562 263.785156 L 133.03125 269.289062 L 136.851562 272.816406 L 140.378906 276.636719 L 143.570312 280.734375 L 146.421875 285.074219 L 150.632812 293.429688 L 153.5625 302.3125 L 155.164062 311.550781 L 104.316406 311.550781 L 104.316406 330.148438 Z M 246.917969 384.398438 L 372.148438 384.398438 L 445.773438 351.074219 L 599.355469 351.074219 L 633.71875 416.175781 L 575.394531 416.175781 L 649.144531 520.652344 L 649.144531 536.300781 L 617.367188 536.300781 L 617.367188 554.898438 L 665.417969 554.898438 L 665.417969 545.601562 L 667.742188 545.601562 L 667.742188 514.746094 L 611.292969 434.773438 L 664.566406 434.773438 L 610.578125 332.476562 L 441.761719 332.476562 L 368.136719 365.800781 L 246.917969 365.800781 Z M 475.542969 411.523438 L 475.542969 392.925781 L 212.042969 392.925781 L 212.042969 411.523438 Z M 377.894531 436.324219 L 377.894531 417.726562 L 146.941406 417.726562 L 146.941406 436.324219 Z M 614.910156 542.367188 L 613.523438 534.75 L 610.679688 527.542969 L 606.480469 521.03125 L 601.085938 515.460938 L 594.714844 511.050781 L 587.609375 507.964844 L 580.035156 506.332031 L 572.285156 506.207031 L 564.667969 507.59375 L 557.460938 510.4375 L 550.949219 514.640625 L 545.378906 520.03125 L 540.96875 526.402344 L 537.882812 533.511719 L 536.25 541.082031 L 536.125 548.832031 L 537.511719 556.449219 L 540.355469 563.65625 L 544.554688 570.167969 L 549.949219 575.738281 L 556.320312 580.148438 L 563.425781 583.234375 L 571 584.871094 L 578.75 584.992188 L 586.367188 583.605469 L 593.574219 580.761719 L 600.085938 576.5625 L 605.65625 571.167969 L 610.066406 564.796875 L 613.152344 557.691406 L 614.785156 550.117188 Z M 596.371094 547.3125 L 595.636719 551.34375 L 594.132812 555.164062 L 591.910156 558.605469 L 589.058594 561.558594 L 585.6875 563.890625 L 581.917969 565.523438 L 577.914062 566.386719 L 573.804688 566.457031 L 569.773438 565.71875 L 565.953125 564.214844 L 562.511719 561.992188 L 559.558594 559.140625 L 557.226562 555.769531 L 555.59375 552 L 554.730469 547.996094 L 554.664062 543.886719 L 555.398438 539.855469 L 556.902344 536.035156 L 559.125 532.59375 L 561.976562 529.644531 L 565.351562 527.308594 L 569.117188 525.675781 L 573.121094 524.816406 L 577.230469 524.746094 L 581.261719 525.480469 L 585.082031 526.984375 L 588.523438 529.207031 L 591.476562 532.0625 L 593.808594 535.433594 L 595.441406 539.199219 L 596.304688 543.207031 Z M 596.371094 547.3125 " fill-opacity="1" fill-rule="evenodd"/></svg>